# xmcd
#
# Track frame offsets:
#	150
#	20417
#	36324
#	50267
#	60898
#	75201
#	94436
#	111338
#	126913
#	138804
#	148523
#	161802
#	178203
#	190558
#	208939
#	226220
#	241391
#	258706
#	278639
#	294612
#	310581
#
# Disc length: 4356 seconds
#
# Revision: 1
# Processed by: cddbd v1.4PL0 Copyright (c) Steve Scherf et al.
# Submitted via: audiograbber 1.82.00
#
DISCID=2a110215
DTITLE=Various Artist - Planet DJ CVountry #3
DYEAR=1900
DGENRE=Country
TTITLE0=Shania Twain - I'm Outta Here  (West Coast)
TTITLE1=Randy Travis - Forever And Ever Amen  (2 step)
TTITLE2=George Strait - Where The Sidewalk Ends  (2 Step)
TTITLE3=Mel McDaniel - Louisiana sturday Night  (2 step)
TTITLE4=Eddie Rabbit - I Love A rainey night  (2 Step)
TTITLE5=Brooks and dunn - Neon Moon  (cha cha   elpaso)
TTITLE6=Leann Rimes - One way Ticket  (double two)
TTITLE7=Daryl Singletary - Amen Kind Of Love  (2 step)
TTITLE8=Johnny Paycheck - Take This Job And Shove It  (Party)
TTITLE9=Waylon Jennings - Dukes Of Hazard
TTITLE10=Dolly Parton - I Will Always Love you  (Ballad)
TTITLE11=Kenny Chesney - Me and You  (Ballad)
TTITLE12=Clint Black - Good Run Of Bad Luck  (2 Step)
TTITLE13=Tracy Byrd - Keeper Of The Stars  (ballad)
TTITLE14=Wynonna Judd - I saw THe Light  (double two)
TTITLE15=Sammy Kershaw - Third rate Romance  (cha cha)
TTITLE16=Ty Herndon - Living in The moment  (double two)
TTITLE17=Hal Ketchum - Past The Point Of Rescue   (2 step)
TTITLE18=Patty Loveless - Blame It On Your Heart  (2 Step  slow)
TTITLE19=Johnny Lee - Lookin for Love  (double two)
TTITLE20=Ricky Skaggs - Thanks Again  (Anniversary)
EXTD=
EXTT0=
EXTT1=
EXTT2=
EXTT3=
EXTT4=
EXTT5=
EXTT6=
EXTT7=
EXTT8=
EXTT9=
EXTT10=
EXTT11=
EXTT12=
EXTT13=
EXTT14=
EXTT15=
EXTT16=
EXTT17=
EXTT18=
EXTT19=
EXTT20=
PLAYORDER=
